<svg width="80" height="80" viewBox="0 0 80 80" fill="none" xmlns="http://www.w3.org/2000/svg">
<g clip-path="url(#clip0_105_32)">
<path d="M77.4949 41.6145C77.5168 41.0946 77.5756 40.582 77.5756 40.0497C77.5756 39.5797 77.5218 39.1219 77.5047 38.6547C77.6926 37.7501 78.1444 36.8275 78.5813 35.9706C79.0132 35.015 79.46 34.1606 79.5576 33.6747C79.9534 32.0734 79.0208 31.1103 77.9953 30.4854C77.2628 30.0338 76.4939 29.7384 76.0131 29.4027C75.7396 28.486 75.4127 27.5864 75.0734 26.699C74.9755 25.7409 75.0686 24.6912 75.1513 23.7318C75.2759 22.6736 75.4394 21.7094 75.3882 21.2113C74.9316 18.399 71.9632 18.6871 70.5718 18.3367C70.0127 17.5616 69.4464 16.7939 68.8362 16.0616C67.9182 14.3344 67.8377 11.6346 67.3423 10.8302C66.0875 8.23287 63.297 9.56309 61.8861 9.65236C61.1099 9.09209 60.3067 8.57217 59.4864 8.08026C58.1169 6.63757 57.072 4.27816 56.3909 3.57009C55.2607 2.37889 53.9155 2.68641 52.8587 3.14529C52.0848 3.48103 51.416 3.97524 50.8668 4.22318C49.8999 3.93636 48.9261 3.67755 47.9325 3.46515C46.204 2.59129 44.527 0.652928 43.6677 0.289171C42.2031 -0.378553 41.0435 0.216001 40.1916 1.00331C39.574 1.62336 39.099 2.31534 38.6611 2.72551C37.6712 2.76585 36.6861 2.82314 35.7194 2.93791C33.7788 2.71819 31.5122 1.34616 30.5748 1.32295C28.9598 1.12163 28.0421 2.02371 27.5222 3.14027C27.1302 3.91775 26.9021 4.72094 26.6128 5.2348C25.7046 5.58999 24.8283 5.98301 23.9605 6.4028C22.005 6.76049 19.4687 6.34782 18.5056 6.53471C16.8858 6.8253 16.4111 8.12019 16.2206 9.26038C16.0753 10.0951 16.1278 10.9399 16.0337 11.5343C15.2757 12.1775 14.5335 12.8367 13.8305 13.5372C12.1633 14.5296 9.5511 14.8372 8.80644 15.3866C6.3469 16.8817 7.86674 19.5267 8.08875 20.9341C7.59434 21.7615 7.1317 22.6038 6.69853 23.4741C6.10419 24.193 5.22657 24.7959 4.45871 25.361C3.61893 25.9957 2.81699 26.5328 2.49735 26.9137C1.36949 28.1281 1.78949 29.4428 2.36188 30.4655C2.794 31.2125 3.30409 31.8326 3.58005 32.3525C3.37977 33.3106 3.2418 34.2871 3.1149 35.2696C2.32634 37.0847 0.669991 38.9643 0.250207 39.8565C-0.665248 42.532 2.02258 43.6988 3.08918 44.673C3.21504 45.6762 3.35176 46.687 3.55914 47.6708C3.46402 49.5969 2.30188 51.9109 2.36167 52.8289C2.26885 55.7071 5.30936 55.8781 6.61428 56.4568C7.03888 57.3282 7.4942 58.1729 7.9813 59.0029C8.26332 59.8964 8.29363 60.9582 8.3438 61.9176C8.41342 62.9672 8.42931 63.9362 8.56833 64.4074C8.97348 66.0161 10.3016 66.3776 11.4686 66.4628C12.3363 66.5118 13.136 66.4192 13.7278 66.4752C14.4185 67.1636 15.1486 67.8081 15.8882 68.4403C17.0075 70.0588 17.6104 72.5829 18.1732 73.3665C19.1447 74.653 20.4471 74.6823 21.5747 74.3917C22.4195 74.1402 23.1725 73.752 23.7523 73.6082C24.6276 74.0378 25.5148 74.4381 26.4217 74.8044C27.187 75.3293 27.8717 76.1055 28.4821 76.8671C29.1716 77.6799 29.7894 78.3928 30.1945 78.6834C30.8487 79.1592 31.4967 79.3083 32.0913 79.2596C32.6967 79.1642 33.2507 78.8716 33.7441 78.5298C34.4532 78.0414 35.0304 77.4456 35.5261 77.1333C36.4917 77.2528 37.4657 77.3189 38.4506 77.3701C40.3304 77.9975 42.349 79.5451 43.2766 79.8357C44.8414 80.3897 45.8741 79.4379 46.5843 78.5346C47.0971 77.856 47.4583 77.1308 47.8221 76.6669C48.8059 76.462 49.7628 76.1982 50.7148 75.9201C52.6726 75.8808 55.0822 76.7329 56.0365 76.7011C57.6452 76.5889 58.3826 75.5072 58.7536 74.4063C59.0074 73.559 59.0881 72.7147 59.2832 72.1481C60.0937 71.6648 60.8944 71.1643 61.661 70.6224C62.5373 70.2365 63.5895 70.0684 64.5928 69.9754C65.6472 69.8339 66.5847 69.7168 67.0511 69.536C68.6012 68.9792 68.916 67.6929 68.8623 66.4796C68.8429 65.6155 68.6622 64.7977 68.6817 64.2117C69.2896 63.4938 69.8585 62.7423 70.4102 61.978C70.7495 61.6924 71.1132 61.4238 71.533 61.1942C71.9871 60.9015 72.4779 60.645 72.9588 60.4107C73.9156 59.937 74.8139 59.5467 75.1996 59.2341C77.3017 57.3152 75.4584 54.9938 74.9849 53.6364C75.3389 52.7283 75.6807 51.8154 75.9688 50.8782C76.9208 49.184 79.1129 47.6631 79.4989 46.8112C80.9566 44.3412 78.3762 42.7471 77.4949 41.6145ZM40.1744 73.3251C21.8279 73.3251 6.89902 58.3977 6.89902 40.0497C6.89902 21.7044 21.8279 6.77533 40.1744 6.77533C58.5197 6.77533 73.4475 21.7044 73.4475 40.0497C73.4475 58.3975 58.5224 73.3251 40.1744 73.3251Z" fill="#F6F3E3"/>
<path d="M40.4014 8.57788C23.0703 8.57788 8.97388 22.6733 8.97388 40.0019C8.97388 57.328 23.0703 71.4234 40.4014 71.4234C57.7265 71.4234 71.8242 57.3255 71.8242 40.0019C71.8242 22.6707 57.724 8.57788 40.4014 8.57788ZM40.4014 69.4144C24.1823 69.4144 10.9865 56.2223 10.9865 40.0021C10.9865 23.7842 24.1823 10.5848 40.4014 10.5848C56.6181 10.5848 69.8102 23.7817 69.8102 40.0021C69.8104 56.2175 56.6181 69.4144 40.4014 69.4144Z" fill="#F6F3E3"/>
<path d="M37.3894 58.1432H46.8849L48.3312 24.7794H35.9441L37.3894 58.1432Z" fill="#F6F3E3"/>
<path d="M44.442 17H39.5598V23.9642H44.442V17Z" fill="#F6F3E3"/>
<path d="M23.8417 57.987H31.5923L32.7724 30.7462H22.6616L23.8417 57.987Z" fill="#F6F3E3"/>
<path d="M29.5985 24.396H25.614V30.0805H29.5985V24.396Z" fill="#F6F3E3"/>
<path d="M52.0596 58.2558H59.8079L60.9879 31.0137H50.8772L52.0596 58.2558Z" fill="#F6F3E3"/>
<path d="M57.8171 24.6693H53.8293V30.3538H57.8171V24.6693Z" fill="#F6F3E3"/>
</g>
<defs>
<clipPath id="clip0_105_32">
<rect width="80" height="80" fill="white"/>
</clipPath>
</defs>
</svg>
